<?xml version="1.0" encoding="UTF-8"?>
<svg width="480" height="120" version="1.1" viewBox="0 0 480 120" xmlns="http://www.w3.org/2000/svg">
    <g fill="#2196f3">
        <path d="m16.297 27.059v-1.8125h9.2812q0.71875-1.4062 1.375-2.7187 0.6875-1.3125 1.25-2.5313l0.15625-0.4062 3.125 0.75q-1.5312 3.125-2.4688 4.9062h17.281v1.8125h-6.1562q-1.5938 5.6563-5.25 8.9063 6.3125 2.5937 9.7188 4.8437l-1.5938 2.0938-1.1562-0.75q-3.2812-2.1875-8.9375-4.6563-4.6875 3.1563-13.344 4.6563l-1.375 0.25v-0.3438q-0.15625-0.3437-1.25-1.4375h0.40625q8.2188-1.125 12.781-4.25-2.9062-1.1875-5.9688-2.125-0.15625 0.2813-0.34375 0.5625-0.1875 0.2813-0.3125 0.5313l-0.25 0.4375-3.0312-0.8438q1.125-1.75 2.1562-3.7187 1.0625-1.9688 2.25-4.1563zm1.0938-3.7812v-6.7188h12.156v-3.7187h3.3125v3.7187h12.562v6.7188h-3.4062v-4.9375h-21.375v4.9375zm7.7188 9.25q4.3438 1.3125 7 2.3125 3.1562-2.9063 4.5312-7.7813h-8.5312q-1.0938 2.0938-3 5.4688z"/>
        <path d="m49.766 41.903v-26.75h27.062v26.75h-3.25v-1.9375h-20.5v1.9375zm3.3125-3.7813h8.4062v-9.875h-8.4062zm0-11.656h8.4062v-9.5313h-8.4062zm11.719 11.656h8.7812v-9.875h-8.7812zm0-11.656h8.7812v-9.5313h-8.7812z"/>
        <path d="m80.484 32.622v-1.75h13.125v-2.4687h1.0938q3.3438-1.4375 5.5-3.1563h-14.594v-1.7187h16.75l1.25-0.3125 1.5312 1.1562q-2.875 2.875-8.2188 5.2188v1.2812h13.313v1.75h-13.313v7.25q0 0.8125-0.25 1.25t-1.375 0.7188q-1.125 0.3125-6.25 0.3125h-0.8125q-0.1875-0.625-0.90625-1.7813h1.125q2.375 0.062 3.75 0.062l1.0938-0.031q0.0625 0 0.1875-0.094t0.125-0.4375v-7.25zm0.75-7.3125v-7.0312h5.1562q-1.0938-2.125-2.9375-4.25l2.5312-1.1563 0.5 0.5313q2.2812 2.5 3.1875 4.5937l-0.625 0.2813h5.2188q-0.875-2.6563-2.5312-4.9688l2.7188-0.9687 0.375 0.5q1.9688 2.9062 2.6875 5.1562l-0.78125 0.2813h4q2.25-2.4688 3.7812-5.0938l0.3125-0.5937 2.9375 1.1875q-1.875 2.6875-3.5 4.5h5.2812v7.0312h-3.2812v-5.3125h-21.75v5.3125z"/>
        <path d="m113.23 42.153v-27.781h28.062v27.781h-3.2812v-1.4688h-21.5v1.4688zm3.2812-3.2188h21.5v-1.875q-0.1875 0.25-0.375 0.5313l-0.25 0.5312-1.375-0.4375q-4.2188-1.3437-7.6562-4.25v4.75h-3.2187v-4.5937q-2.375 1.5625-6.3125 3.1875l-1.3125 0.5-0.375-0.5625q-0.0937-0.125-0.28125-0.375-0.15625-0.25-0.34375-0.4375zm0-3.5312q5.3125-1.8125 8.4688-4.5313h-6.0938v-5.6875h16.812v4.9063l1.5312 0.8125q-1.9062 1.6562-4.375 3.0625 2.2812 1.4687 5.1562 2.3125v-20.188h-21.5zm0.125-11.688v-1.4688h8.9688v-2.1875h-6.9062v-1.4062h6.9062v-2.0313h3.1875v2.0313h7.1875v1.4062h-7.1875v2.1875h9.0312v1.4688zm5.375 5.75h10.5v-2.875h-10.5zm7.1875 1.4062q0.78125 0.9375 1.9062 1.8438 0.625-0.4375 1.2812-0.9063 0.6875-0.4687 1.2188-0.9375z"/>
        <path d="m18.516 67.778v-9.8125h38.438v45.75h-38.438v-9.8125h28.25v-26.125z"/>
        <path d="m65.828 67.091v-9.75h19.5v9.75zm41.563 0.75q-3.125 11.438-8.375 18.625-5.25 7.1875-10.938 11.125-5.625 3.875-10.688 5.5t-8.3125 1.875q-3.1875 0.3125-3.25 0.25v-10.188q0.0625 0.062 2.5625-0.062 2.5-0.1875 6.375-1.3125 3.9375-1.125 8.25-4.3125t7.9375-8.0625q3.6875-4.9375 6.5-13.438z"/>
        <path d="m155.08 60.841q0-1.375-0.9375-2.25-0.875-0.875-2.1875-0.875t-2.1875 0.875-0.875 2.25q0 1.3125 0.875 2.1875t2.1875 0.875 2.1875-0.875q0.9375-0.875 0.9375-2.1875zm-8-4.9375q2-2 4.875-2t4.875 2.0625q2.0625 2 2.0625 4.875t-2 4.875q-2 1.9375-4.8125 2v6.25h-26.75v16.188q0.125 2.375 1.5 3.8125 1.4375 1.375 5.3125 1.5625 5.5 0.062 9.8125-0.25 4.3125-0.3125 10.125-1.25v10q-5.625 0.625-10.312 0.875-4.6875 0.3125-10.375 0.1875-6.875-0.3125-11.062-3.5625-4.1875-3.25-4.5625-10.438v-35.188h9.5625v8.25h20.562q-0.8125-1.5-0.8125-3.3125 0-2.875 2-4.9375z"/>
        <path d="m162.58 73.966v-8.3125h29.625l-2 30.312h6.5625v8.5625h-36v-8.5625h20.688l1.375-22z"/>
        <path d="m202.89 85.028v-9.8125h28.875v9.8125z"/>
        <path d="m258.64 54.278q-0.3125 1.8125-0.625 3.3125-0.3125 1.4375-0.375 1.5625h21.375v9.5625q-0.75 8.5625-3.625 14.875-2.8125 6.3125-7.0625 10.562-4.25 4.1875-8.625 6.9375-4.375 2.6875-8.1875 4.125t-6.1875 1.9375q-2.375 0.5625-2.4375 0.5v-10.125q0.0625 0 2.1875-0.5 2.125-0.5625 5.375-1.9375 3.3125-1.375 6.875-3.8125 3.5625-2.5 6.5625-6.4375h-11.562v-9.3125h15.312q1-3.625 1.1875-7.0625h-14.688q-3.875 7.1875-7.5 10.688-3.625 3.4375-5.9375 5.125t-2.4375 1.625v-12.062q0.0625 0 1.375-1.125 1.375-1.1875 3.125-3.625 1.8125-2.4375 3.4375-6.0625 1.6875-3.6875 2.625-8.75z"/>
        <path d="m286.27 85.028v-9.8125h28.875v9.8125z"/>
        <path d="m341.58 54.278q-0.25 1.75-0.625 3.375t-0.75 3.125h20.562v9.5625q-0.6875 8.125-3.5625 14.375-2.875 6.1875-6.9375 10.188-4 4-8.25 6.4375-4.1875 2.4375-7.875 3.875-3.625 1.4375-5.9375 1.9375-2.3125 0.5625-2.375 0.5v-10.125q0.0625 0.062 2.4375-0.5625 2.4375-0.6875 5.9375-2.375t7.3125-5.125 6.125-7.9375q2.375-4.5 3.1875-11.438h-14.438q-3.625 5.625-7.0625 9.125t-5.75 5.125q-2.25 1.625-2.375 1.5625v-12.062q0.0625 0 1.375-1.125 1.375-1.1875 3.125-3.75t3.375-6.0625q1.6875-3.5625 2.625-8.625z"/>
        <path d="m368.14 81.153v-9.3125h40.5q0 8.1875-2.3125 14.188t-6.5625 9.8125-8.625 5.875q-4.375 2.0625-8.3125 2.9375-3.9375 0.9375-6.375 1.25t-2.5625 0.3125v-10.063q0.0625 0.062 2.0625-0.1875 2-0.25 5.0625-1.0625t6.375-2.4375 5.8125-4.375q2.5625-2.75 3.6875-6.9375zm1.75-15.188v-9.3125h36v9.3125z"/>
        <path d="m459.39 62.403v-9h4.3125v9zm-42.938 4.6875v-10h36.188v-3.6875h4.3125v9h-2.1875v3.875q-0.125 9.1875-2.875 15.812t-6.5625 10.938q-3.8125 4.25-8.0625 6.625-4.25 2.375-8.0625 3.625-3.8125 1.1875-6.25 1.5-2.375 0.375-2.4375 0.3125v-10q5-0.75 8.6875-2.125 3.6875-1.4375 7.3125-4.5 3.6875-3.0625 6-8.1875 2.3125-5.1875 2.625-13.188z"/>
    </g>
</svg>
