<?xml version="1.0" encoding="UTF-8"?>
<svg width="1024" height="1024" version="1.1" viewBox="0 0 64 64" xmlns="http://www.w3.org/2000/svg">
    <rect x="-2e-7" y="9.277" width="64" height="45.539" ry="2.4615"/>
    <g fill="#fff">
        <rect x="2.4615" y="11.677" width="59.077" height="33.231"/>
        <rect x="-2e-7" y="47.377" width="64" height="1.2308"/>
        <circle cx="32" cy="51.677" r="1.8462"/>
    </g>
    <path d="m43.077 54.777 2.4615 4.9231h-27.077l2.4615-4.9231z"/>
    <rect x="17.231" y="59.677" width="29.538" height="1.2308" ry="5.7452e-5"/>
    <g fill="none" stroke="#000">
        <g stroke-width=".6154">
            <path d="m37.553 32.77c0.41606 0.09231 0.84056 0.13871 1.2664 0.13982 3.3235 0 6.0179-2.7289 6.0179-6.0952 0-3.3664-2.6942-6.0953-6.0179-6.0953-1.7108 0-3.3397 0.7423-4.4794 2.0345"/>
            <path d="m30.236 35.601c0.31324 3.1078 2.8956 5.4726 5.9798 5.4762 3.3235 0 6.0179-2.7289 6.0179-6.0952-0.0017-2.4134-1.409-4.5984-3.5891-5.5724"/>
            <path d="m25.353 29.324c-2.1768 0.97455-3.5821 3.1569-3.5851 5.5674 0 3.3662 2.6942 6.0952 6.0179 6.0952 3.0849-2.46e-4 5.6699-2.363 5.9859-5.471"/>
            <path d="m29.656 22.8c-1.1391-1.2898-2.7659-2.0282-4.4743-2.0314-3.3235 0-6.0179 2.7289-6.0179 6.0953 0 3.3662 2.6942 6.0952 6.0179 6.0952 0.42459 0 0.84774-0.05046 1.2624-0.1429"/>
            <path d="m37.202 24.893c0.53286-0.92765 0.81443-1.9813 0.81624-3.0546 0-3.3664-2.6942-6.0952-6.0179-6.0952-3.3237 0-6.0179 2.7288-6.0179 6.0952 0.0025 1.0746 0.28547 2.1295 0.82025 3.0577"/>
            <circle cx="32" cy="29.077" r="6.7437"/>
        </g>
        <g stroke-width="1.2886">
            <path d="m38.332 31.17c0.2154-0.67005 0.32578-1.3702 0.3271-2.0749 0-3.7244-2.9809-6.7437-6.658-6.7437s-6.658 3.0193-6.658 6.7437c3e-3 0.70488 0.11499 1.4051 0.3321 2.0749"/>
            <path d="m28.672 30.554 0.6658-3.5793 0.05121-0.1557"/>
            <path d="m28.774 25.508h6.5556v2.6456h-6.2483"/>
            <path d="m32.155 20.339v9.9598h2.9193c0 2.9569-1.6389 3.9943-3.1753 3.9943"/>
        </g>
    </g>
</svg>
